<mxfile host="app.diagrams.net" modified="2023-12-29T00:28:51.854Z" agent="Mozilla/5.0 (Windows NT 10.0; Win64; x64; rv:121.0) Gecko/20100101 Firefox/121.0" etag="S4RhZU26X5m1gtI7f7Q1" version="22.1.15" type="github">
  <diagram id="C5RBs43oDa-KdzZeNtuy" name="Page-1">
    <mxGraphModel dx="724" dy="451" grid="1" gridSize="10" guides="1" tooltips="1" connect="1" arrows="1" fold="1" page="1" pageScale="1" pageWidth="827" pageHeight="1169" math="0" shadow="0">
      <root>
        <mxCell id="WIyWlLk6GJQsqaUBKTNV-0" />
        <mxCell id="WIyWlLk6GJQsqaUBKTNV-1" parent="WIyWlLk6GJQsqaUBKTNV-0" />
        <mxCell id="n9s_sSae4hV56CjeT8IY-64" value="" style="ellipse;whiteSpace=wrap;html=1;aspect=fixed;" vertex="1" parent="WIyWlLk6GJQsqaUBKTNV-1">
          <mxGeometry x="470" y="715" width="40" height="40" as="geometry" />
        </mxCell>
        <mxCell id="n9s_sSae4hV56CjeT8IY-0" value="" style="rounded=1;whiteSpace=wrap;html=1;fillColor=none;strokeWidth=2;comic=0;" vertex="1" parent="WIyWlLk6GJQsqaUBKTNV-1">
          <mxGeometry x="330" y="240" width="670" height="50" as="geometry" />
        </mxCell>
        <mxCell id="n9s_sSae4hV56CjeT8IY-1" value="&lt;font style=&quot;font-size: 14px;&quot;&gt;toPosition&lt;br&gt;&lt;/font&gt;" style="rounded=1;whiteSpace=wrap;html=1;" vertex="1" parent="WIyWlLk6GJQsqaUBKTNV-1">
          <mxGeometry x="260" y="450" width="120" height="60" as="geometry" />
        </mxCell>
        <mxCell id="n9s_sSae4hV56CjeT8IY-2" value="&lt;div style=&quot;font-size: 14px;&quot;&gt;&lt;font style=&quot;font-size: 14px;&quot;&gt;Token::Move&lt;/font&gt;&lt;/div&gt;&lt;div style=&quot;font-size: 14px;&quot;&gt;&lt;font style=&quot;font-size: 14px;&quot;&gt;toPosition: Position&lt;font style=&quot;font-size: 14px;&quot;&gt;&lt;br&gt;&lt;/font&gt;&lt;/font&gt;&lt;/div&gt;" style="text;html=1;strokeColor=none;fillColor=none;align=center;verticalAlign=middle;whiteSpace=wrap;rounded=0;" vertex="1" parent="WIyWlLk6GJQsqaUBKTNV-1">
          <mxGeometry x="344" y="240" width="140" height="70" as="geometry" />
        </mxCell>
        <mxCell id="n9s_sSae4hV56CjeT8IY-5" value="" style="endArrow=classic;html=1;rounded=0;exitX=1;exitY=0.5;exitDx=0;exitDy=0;" edge="1" parent="WIyWlLk6GJQsqaUBKTNV-1" source="n9s_sSae4hV56CjeT8IY-1" target="n9s_sSae4hV56CjeT8IY-6">
          <mxGeometry width="50" height="50" relative="1" as="geometry">
            <mxPoint x="620" y="510" as="sourcePoint" />
            <mxPoint x="430" y="480" as="targetPoint" />
          </mxGeometry>
        </mxCell>
        <mxCell id="n9s_sSae4hV56CjeT8IY-8" style="edgeStyle=orthogonalEdgeStyle;rounded=0;orthogonalLoop=1;jettySize=auto;html=1;exitX=0.5;exitY=1;exitDx=0;exitDy=0;" edge="1" parent="WIyWlLk6GJQsqaUBKTNV-1" source="n9s_sSae4hV56CjeT8IY-6" target="n9s_sSae4hV56CjeT8IY-9">
          <mxGeometry relative="1" as="geometry">
            <mxPoint x="475.3103448275863" y="560.0000000000001" as="targetPoint" />
          </mxGeometry>
        </mxCell>
        <mxCell id="n9s_sSae4hV56CjeT8IY-10" style="edgeStyle=orthogonalEdgeStyle;rounded=0;orthogonalLoop=1;jettySize=auto;html=1;exitX=1;exitY=0.5;exitDx=0;exitDy=0;entryX=0;entryY=0.5;entryDx=0;entryDy=0;" edge="1" parent="WIyWlLk6GJQsqaUBKTNV-1" source="n9s_sSae4hV56CjeT8IY-6" target="n9s_sSae4hV56CjeT8IY-13">
          <mxGeometry relative="1" as="geometry">
            <mxPoint x="570" y="480.0344827586207" as="targetPoint" />
          </mxGeometry>
        </mxCell>
        <mxCell id="n9s_sSae4hV56CjeT8IY-6" value="" style="rhombus;whiteSpace=wrap;html=1;" vertex="1" parent="WIyWlLk6GJQsqaUBKTNV-1">
          <mxGeometry x="450" y="455" width="50" height="50" as="geometry" />
        </mxCell>
        <mxCell id="n9s_sSae4hV56CjeT8IY-7" value="Ist die Zielposition NULL ?" style="text;html=1;align=center;verticalAlign=middle;resizable=0;points=[];autosize=1;strokeColor=none;fillColor=none;" vertex="1" parent="WIyWlLk6GJQsqaUBKTNV-1">
          <mxGeometry x="395" y="425" width="160" height="30" as="geometry" />
        </mxCell>
        <mxCell id="n9s_sSae4hV56CjeT8IY-28" style="edgeStyle=orthogonalEdgeStyle;rounded=0;orthogonalLoop=1;jettySize=auto;html=1;exitX=0.5;exitY=1;exitDx=0;exitDy=0;" edge="1" parent="WIyWlLk6GJQsqaUBKTNV-1" source="n9s_sSae4hV56CjeT8IY-9">
          <mxGeometry relative="1" as="geometry">
            <mxPoint x="600" y="480.0000000000001" as="targetPoint" />
            <Array as="points">
              <mxPoint x="475" y="630" />
              <mxPoint x="550" y="630" />
              <mxPoint x="550" y="520" />
              <mxPoint x="600" y="520" />
            </Array>
          </mxGeometry>
        </mxCell>
        <mxCell id="n9s_sSae4hV56CjeT8IY-9" value="Fehlermeldung: Zielposition ist NULL" style="rounded=1;whiteSpace=wrap;html=1;" vertex="1" parent="WIyWlLk6GJQsqaUBKTNV-1">
          <mxGeometry x="417.5" y="555" width="115" height="55" as="geometry" />
        </mxCell>
        <mxCell id="n9s_sSae4hV56CjeT8IY-11" style="edgeStyle=orthogonalEdgeStyle;rounded=0;orthogonalLoop=1;jettySize=auto;html=1;exitX=0.5;exitY=1;exitDx=0;exitDy=0;" edge="1" parent="WIyWlLk6GJQsqaUBKTNV-1" source="n9s_sSae4hV56CjeT8IY-13" target="n9s_sSae4hV56CjeT8IY-14">
          <mxGeometry relative="1" as="geometry">
            <mxPoint x="627.8103448275863" y="560.0000000000001" as="targetPoint" />
          </mxGeometry>
        </mxCell>
        <mxCell id="n9s_sSae4hV56CjeT8IY-12" style="edgeStyle=orthogonalEdgeStyle;rounded=0;orthogonalLoop=1;jettySize=auto;html=1;exitX=1;exitY=0.5;exitDx=0;exitDy=0;entryX=0;entryY=0.5;entryDx=0;entryDy=0;" edge="1" parent="WIyWlLk6GJQsqaUBKTNV-1" target="n9s_sSae4hV56CjeT8IY-19">
          <mxGeometry relative="1" as="geometry">
            <mxPoint x="722.5" y="479.6944827586207" as="targetPoint" />
            <mxPoint x="652.5" y="479.66000000000014" as="sourcePoint" />
          </mxGeometry>
        </mxCell>
        <mxCell id="n9s_sSae4hV56CjeT8IY-13" value="" style="rhombus;whiteSpace=wrap;html=1;" vertex="1" parent="WIyWlLk6GJQsqaUBKTNV-1">
          <mxGeometry x="602.5" y="455" width="50" height="50" as="geometry" />
        </mxCell>
        <mxCell id="n9s_sSae4hV56CjeT8IY-14" value="Fehlermeldung: Zielposition ist nicht auf dem Spielbrett" style="rounded=1;whiteSpace=wrap;html=1;" vertex="1" parent="WIyWlLk6GJQsqaUBKTNV-1">
          <mxGeometry x="570" y="555" width="115" height="55" as="geometry" />
        </mxCell>
        <mxCell id="n9s_sSae4hV56CjeT8IY-17" style="edgeStyle=orthogonalEdgeStyle;rounded=0;orthogonalLoop=1;jettySize=auto;html=1;exitX=0.5;exitY=1;exitDx=0;exitDy=0;" edge="1" parent="WIyWlLk6GJQsqaUBKTNV-1" source="n9s_sSae4hV56CjeT8IY-19" target="n9s_sSae4hV56CjeT8IY-20">
          <mxGeometry relative="1" as="geometry">
            <mxPoint x="777.8103448275863" y="560.0000000000001" as="targetPoint" />
          </mxGeometry>
        </mxCell>
        <mxCell id="n9s_sSae4hV56CjeT8IY-18" style="edgeStyle=orthogonalEdgeStyle;rounded=0;orthogonalLoop=1;jettySize=auto;html=1;exitX=1;exitY=0.5;exitDx=0;exitDy=0;entryX=0;entryY=0.5;entryDx=0;entryDy=0;" edge="1" parent="WIyWlLk6GJQsqaUBKTNV-1" source="n9s_sSae4hV56CjeT8IY-19" target="n9s_sSae4hV56CjeT8IY-23">
          <mxGeometry relative="1" as="geometry">
            <mxPoint x="872.5" y="480.0344827586207" as="targetPoint" />
          </mxGeometry>
        </mxCell>
        <mxCell id="n9s_sSae4hV56CjeT8IY-19" value="" style="rhombus;whiteSpace=wrap;html=1;" vertex="1" parent="WIyWlLk6GJQsqaUBKTNV-1">
          <mxGeometry x="752.5" y="455" width="50" height="50" as="geometry" />
        </mxCell>
        <mxCell id="n9s_sSae4hV56CjeT8IY-20" value="Fehlermeldung: Start- und Zielposition sind gleich" style="rounded=1;whiteSpace=wrap;html=1;" vertex="1" parent="WIyWlLk6GJQsqaUBKTNV-1">
          <mxGeometry x="720" y="555" width="115" height="55" as="geometry" />
        </mxCell>
        <mxCell id="n9s_sSae4hV56CjeT8IY-21" style="edgeStyle=orthogonalEdgeStyle;rounded=0;orthogonalLoop=1;jettySize=auto;html=1;exitX=0.5;exitY=1;exitDx=0;exitDy=0;" edge="1" parent="WIyWlLk6GJQsqaUBKTNV-1" source="n9s_sSae4hV56CjeT8IY-23" target="n9s_sSae4hV56CjeT8IY-24">
          <mxGeometry relative="1" as="geometry">
            <mxPoint x="927.8103448275863" y="560.0000000000001" as="targetPoint" />
          </mxGeometry>
        </mxCell>
        <mxCell id="n9s_sSae4hV56CjeT8IY-22" style="edgeStyle=orthogonalEdgeStyle;rounded=0;orthogonalLoop=1;jettySize=auto;html=1;exitX=1;exitY=0.5;exitDx=0;exitDy=0;" edge="1" parent="WIyWlLk6GJQsqaUBKTNV-1" source="n9s_sSae4hV56CjeT8IY-23">
          <mxGeometry relative="1" as="geometry">
            <mxPoint x="1022.5" y="480.0344827586207" as="targetPoint" />
          </mxGeometry>
        </mxCell>
        <mxCell id="n9s_sSae4hV56CjeT8IY-23" value="" style="rhombus;whiteSpace=wrap;html=1;" vertex="1" parent="WIyWlLk6GJQsqaUBKTNV-1">
          <mxGeometry x="902.5" y="455" width="50" height="50" as="geometry" />
        </mxCell>
        <mxCell id="n9s_sSae4hV56CjeT8IY-24" value="Fehlermeldung: Zielposition ist belegt" style="rounded=1;whiteSpace=wrap;html=1;" vertex="1" parent="WIyWlLk6GJQsqaUBKTNV-1">
          <mxGeometry x="870" y="555" width="115" height="55" as="geometry" />
        </mxCell>
        <mxCell id="n9s_sSae4hV56CjeT8IY-25" value="Ja" style="text;html=1;align=center;verticalAlign=middle;resizable=0;points=[];autosize=1;strokeColor=none;fillColor=none;" vertex="1" parent="WIyWlLk6GJQsqaUBKTNV-1">
          <mxGeometry x="470" y="510" width="40" height="30" as="geometry" />
        </mxCell>
        <mxCell id="n9s_sSae4hV56CjeT8IY-26" value="Nein" style="text;html=1;align=center;verticalAlign=middle;resizable=0;points=[];autosize=1;strokeColor=none;fillColor=none;" vertex="1" parent="WIyWlLk6GJQsqaUBKTNV-1">
          <mxGeometry x="500" y="475" width="50" height="30" as="geometry" />
        </mxCell>
        <mxCell id="n9s_sSae4hV56CjeT8IY-29" value="&lt;div&gt;Zielposition ist nicht&amp;nbsp;&lt;/div&gt;&lt;div&gt;auf dem Spielbrett?&lt;/div&gt;" style="text;html=1;align=center;verticalAlign=middle;resizable=0;points=[];autosize=1;strokeColor=none;fillColor=none;" vertex="1" parent="WIyWlLk6GJQsqaUBKTNV-1">
          <mxGeometry x="562.5" y="415" width="130" height="40" as="geometry" />
        </mxCell>
        <mxCell id="n9s_sSae4hV56CjeT8IY-30" value="Ja" style="text;html=1;align=center;verticalAlign=middle;resizable=0;points=[];autosize=1;strokeColor=none;fillColor=none;" vertex="1" parent="WIyWlLk6GJQsqaUBKTNV-1">
          <mxGeometry x="620" y="510" width="40" height="30" as="geometry" />
        </mxCell>
        <mxCell id="n9s_sSae4hV56CjeT8IY-31" value="Nein" style="text;html=1;align=center;verticalAlign=middle;resizable=0;points=[];autosize=1;strokeColor=none;fillColor=none;" vertex="1" parent="WIyWlLk6GJQsqaUBKTNV-1">
          <mxGeometry x="650" y="475" width="50" height="30" as="geometry" />
        </mxCell>
        <mxCell id="n9s_sSae4hV56CjeT8IY-32" value="Ja" style="text;html=1;align=center;verticalAlign=middle;resizable=0;points=[];autosize=1;strokeColor=none;fillColor=none;" vertex="1" parent="WIyWlLk6GJQsqaUBKTNV-1">
          <mxGeometry x="770" y="510" width="40" height="30" as="geometry" />
        </mxCell>
        <mxCell id="n9s_sSae4hV56CjeT8IY-33" value="Nein" style="text;html=1;align=center;verticalAlign=middle;resizable=0;points=[];autosize=1;strokeColor=none;fillColor=none;" vertex="1" parent="WIyWlLk6GJQsqaUBKTNV-1">
          <mxGeometry x="800" y="475" width="50" height="30" as="geometry" />
        </mxCell>
        <mxCell id="n9s_sSae4hV56CjeT8IY-34" value="Ja" style="text;html=1;align=center;verticalAlign=middle;resizable=0;points=[];autosize=1;strokeColor=none;fillColor=none;" vertex="1" parent="WIyWlLk6GJQsqaUBKTNV-1">
          <mxGeometry x="920" y="510" width="40" height="30" as="geometry" />
        </mxCell>
        <mxCell id="n9s_sSae4hV56CjeT8IY-35" value="Nein" style="text;html=1;align=center;verticalAlign=middle;resizable=0;points=[];autosize=1;strokeColor=none;fillColor=none;" vertex="1" parent="WIyWlLk6GJQsqaUBKTNV-1">
          <mxGeometry x="950" y="475" width="50" height="30" as="geometry" />
        </mxCell>
        <mxCell id="n9s_sSae4hV56CjeT8IY-36" style="edgeStyle=orthogonalEdgeStyle;rounded=0;orthogonalLoop=1;jettySize=auto;html=1;exitX=0.5;exitY=1;exitDx=0;exitDy=0;" edge="1" parent="WIyWlLk6GJQsqaUBKTNV-1">
          <mxGeometry relative="1" as="geometry">
            <mxPoint x="752.5" y="480.0000000000001" as="targetPoint" />
            <mxPoint x="627.5" y="610" as="sourcePoint" />
            <Array as="points">
              <mxPoint x="627.5" y="630" />
              <mxPoint x="702.5" y="630" />
              <mxPoint x="702.5" y="520" />
              <mxPoint x="752.5" y="520" />
            </Array>
          </mxGeometry>
        </mxCell>
        <mxCell id="n9s_sSae4hV56CjeT8IY-37" style="edgeStyle=orthogonalEdgeStyle;rounded=0;orthogonalLoop=1;jettySize=auto;html=1;exitX=0.5;exitY=1;exitDx=0;exitDy=0;" edge="1" parent="WIyWlLk6GJQsqaUBKTNV-1">
          <mxGeometry relative="1" as="geometry">
            <mxPoint x="902.5" y="480.0000000000001" as="targetPoint" />
            <mxPoint x="777.5" y="610" as="sourcePoint" />
            <Array as="points">
              <mxPoint x="777.5" y="630" />
              <mxPoint x="852.5" y="630" />
              <mxPoint x="852.5" y="520" />
              <mxPoint x="902.5" y="520" />
            </Array>
          </mxGeometry>
        </mxCell>
        <mxCell id="n9s_sSae4hV56CjeT8IY-45" style="edgeStyle=orthogonalEdgeStyle;rounded=0;orthogonalLoop=1;jettySize=auto;html=1;exitX=1;exitY=0.5;exitDx=0;exitDy=0;entryX=0.5;entryY=0;entryDx=0;entryDy=0;" edge="1" parent="WIyWlLk6GJQsqaUBKTNV-1" source="n9s_sSae4hV56CjeT8IY-38" target="n9s_sSae4hV56CjeT8IY-43">
          <mxGeometry relative="1" as="geometry" />
        </mxCell>
        <mxCell id="n9s_sSae4hV56CjeT8IY-38" value="Distanz zwischen Start- und Zielposition berechnen" style="rounded=1;whiteSpace=wrap;html=1;" vertex="1" parent="WIyWlLk6GJQsqaUBKTNV-1">
          <mxGeometry x="1020" y="450" width="120" height="60" as="geometry" />
        </mxCell>
        <mxCell id="n9s_sSae4hV56CjeT8IY-40" value="&lt;div&gt;Zielposition ist gleich&amp;nbsp;&lt;/div&gt;&lt;div&gt;der Startposition?&lt;/div&gt;" style="text;html=1;align=center;verticalAlign=middle;resizable=0;points=[];autosize=1;strokeColor=none;fillColor=none;" vertex="1" parent="WIyWlLk6GJQsqaUBKTNV-1">
          <mxGeometry x="712.5" y="415" width="130" height="40" as="geometry" />
        </mxCell>
        <mxCell id="n9s_sSae4hV56CjeT8IY-41" value="Zielposition besetzt?" style="text;html=1;align=center;verticalAlign=middle;resizable=0;points=[];autosize=1;strokeColor=none;fillColor=none;" vertex="1" parent="WIyWlLk6GJQsqaUBKTNV-1">
          <mxGeometry x="862.5" y="425" width="130" height="30" as="geometry" />
        </mxCell>
        <mxCell id="n9s_sSae4hV56CjeT8IY-42" style="edgeStyle=orthogonalEdgeStyle;rounded=0;orthogonalLoop=1;jettySize=auto;html=1;exitX=0.5;exitY=1;exitDx=0;exitDy=0;entryX=0.5;entryY=1;entryDx=0;entryDy=0;" edge="1" parent="WIyWlLk6GJQsqaUBKTNV-1" source="n9s_sSae4hV56CjeT8IY-24" target="n9s_sSae4hV56CjeT8IY-38">
          <mxGeometry relative="1" as="geometry">
            <mxPoint x="1020" y="520" as="targetPoint" />
          </mxGeometry>
        </mxCell>
        <mxCell id="n9s_sSae4hV56CjeT8IY-43" value="" style="rhombus;whiteSpace=wrap;html=1;" vertex="1" parent="WIyWlLk6GJQsqaUBKTNV-1">
          <mxGeometry x="1170" y="638" width="70" height="62" as="geometry" />
        </mxCell>
        <mxCell id="n9s_sSae4hV56CjeT8IY-44" value="switch &amp;lt;Distanz&amp;gt;" style="text;html=1;align=center;verticalAlign=middle;resizable=0;points=[];autosize=1;strokeColor=none;fillColor=none;" vertex="1" parent="WIyWlLk6GJQsqaUBKTNV-1">
          <mxGeometry x="1215" y="630" width="110" height="30" as="geometry" />
        </mxCell>
        <mxCell id="n9s_sSae4hV56CjeT8IY-46" value="" style="endArrow=none;html=1;rounded=0;entryX=0.5;entryY=1;entryDx=0;entryDy=0;" edge="1" parent="WIyWlLk6GJQsqaUBKTNV-1" target="n9s_sSae4hV56CjeT8IY-43">
          <mxGeometry width="50" height="50" relative="1" as="geometry">
            <mxPoint x="1205" y="890" as="sourcePoint" />
            <mxPoint x="1160" y="690" as="targetPoint" />
          </mxGeometry>
        </mxCell>
        <mxCell id="n9s_sSae4hV56CjeT8IY-47" value="" style="endArrow=classic;html=1;rounded=0;entryX=1;entryY=0.5;entryDx=0;entryDy=0;" edge="1" parent="WIyWlLk6GJQsqaUBKTNV-1" target="n9s_sSae4hV56CjeT8IY-48">
          <mxGeometry width="50" height="50" relative="1" as="geometry">
            <mxPoint x="1200" y="735" as="sourcePoint" />
            <mxPoint x="1020" y="730" as="targetPoint" />
          </mxGeometry>
        </mxCell>
        <mxCell id="n9s_sSae4hV56CjeT8IY-51" style="edgeStyle=orthogonalEdgeStyle;rounded=0;orthogonalLoop=1;jettySize=auto;html=1;exitX=0;exitY=0.5;exitDx=0;exitDy=0;" edge="1" parent="WIyWlLk6GJQsqaUBKTNV-1" source="n9s_sSae4hV56CjeT8IY-48">
          <mxGeometry relative="1" as="geometry">
            <mxPoint x="919.9999999999998" y="735.2068965517242" as="targetPoint" />
          </mxGeometry>
        </mxCell>
        <mxCell id="n9s_sSae4hV56CjeT8IY-48" value="" style="rhombus;whiteSpace=wrap;html=1;" vertex="1" parent="WIyWlLk6GJQsqaUBKTNV-1">
          <mxGeometry x="992.5" y="710" width="50" height="50" as="geometry" />
        </mxCell>
        <mxCell id="n9s_sSae4hV56CjeT8IY-49" value="Distanz = 1" style="text;html=1;align=center;verticalAlign=middle;resizable=0;points=[];autosize=1;strokeColor=none;fillColor=none;" vertex="1" parent="WIyWlLk6GJQsqaUBKTNV-1">
          <mxGeometry x="1110" y="710" width="80" height="30" as="geometry" />
        </mxCell>
        <mxCell id="n9s_sSae4hV56CjeT8IY-50" value="Token ist CROWN?" style="text;html=1;align=center;verticalAlign=middle;resizable=0;points=[];autosize=1;strokeColor=none;fillColor=none;" vertex="1" parent="WIyWlLk6GJQsqaUBKTNV-1">
          <mxGeometry x="960" y="680" width="130" height="30" as="geometry" />
        </mxCell>
        <mxCell id="n9s_sSae4hV56CjeT8IY-52" value="Ja" style="text;html=1;align=center;verticalAlign=middle;resizable=0;points=[];autosize=1;strokeColor=none;fillColor=none;" vertex="1" parent="WIyWlLk6GJQsqaUBKTNV-1">
          <mxGeometry x="930" y="710" width="40" height="30" as="geometry" />
        </mxCell>
        <mxCell id="n9s_sSae4hV56CjeT8IY-54" value="Spielzug &quot;Ziehen&quot;" style="rounded=1;whiteSpace=wrap;html=1;" vertex="1" parent="WIyWlLk6GJQsqaUBKTNV-1">
          <mxGeometry x="820" y="712.5" width="100" height="45" as="geometry" />
        </mxCell>
        <mxCell id="n9s_sSae4hV56CjeT8IY-62" value="" style="endArrow=classic;html=1;rounded=0;exitX=0;exitY=0.5;exitDx=0;exitDy=0;" edge="1" parent="WIyWlLk6GJQsqaUBKTNV-1" source="n9s_sSae4hV56CjeT8IY-54">
          <mxGeometry width="50" height="50" relative="1" as="geometry">
            <mxPoint x="780" y="760" as="sourcePoint" />
            <mxPoint x="710" y="735" as="targetPoint" />
          </mxGeometry>
        </mxCell>
        <mxCell id="n9s_sSae4hV56CjeT8IY-63" value="" style="ellipse;whiteSpace=wrap;html=1;aspect=fixed;fillStyle=auto;fillColor=#000000;" vertex="1" parent="WIyWlLk6GJQsqaUBKTNV-1">
          <mxGeometry x="476.25" y="721.25" width="27.5" height="27.5" as="geometry" />
        </mxCell>
      </root>
    </mxGraphModel>
  </diagram>
</mxfile>
